<?xml version="1.0" encoding="utf-8"?>
<!-- Generator: Adobe Illustrator 24.2.3, SVG Export Plug-In . SVG Version: 6.00 Build 0)  -->
<svg version="1.0" xmlns="http://www.w3.org/2000/svg" xmlns:xlink="http://www.w3.org/1999/xlink" x="0px" y="0px"
	 viewBox="0 0 1700 1000" enable-background="new 0 0 1700 1000" xml:space="preserve">
<g id="background">
	<g>
		<g>
			<polygon fill="#F2F2F2" points="1700,1000 -8.66,1005.144 -8.66,-5.144 1708.831,-5.144 			"/>
			
				<linearGradient id="SVGID_1_" gradientUnits="userSpaceOnUse" x1="-93.8097" y1="-656.9393" x2="835.6648" y2="-656.9393" gradientTransform="matrix(0.7071 0.7071 -0.7071 0.7071 123.2811 702.239)">
				<stop  offset="0.0633" style="stop-color:#A3A3A3;stop-opacity:0.2"/>
				<stop  offset="1" style="stop-color:#A3A3A3"/>
			</linearGradient>
			<circle opacity="0.46" fill="url(#SVGID_1_)" cx="850.086" cy="500" r="464.733"/>
			
				<linearGradient id="SVGID_2_" gradientUnits="userSpaceOnUse" x1="-81.7258" y1="-644.7341" x2="847.7487" y2="-644.7341" gradientTransform="matrix(0.7071 0.7071 -0.7071 0.7071 123.2811 702.239)">
				<stop  offset="0.0633" style="stop-color:#A3A3A3;stop-opacity:0.2"/>
				<stop  offset="1" style="stop-color:#A3A3A3"/>
			</linearGradient>
			<circle opacity="0.31" fill="url(#SVGID_2_)" cx="850" cy="517.175" r="464.733"/>
			<linearGradient id="SVGID_3_" gradientUnits="userSpaceOnUse" x1="1294.6073" y1="534.3498" x2="1539.894" y2="534.3498">
				<stop  offset="0" style="stop-color:#9F9F9F"/>
				<stop  offset="1" style="stop-color:#BCBCBC"/>
			</linearGradient>
			<circle opacity="0.85" fill="url(#SVGID_3_)" cx="1417.251" cy="534.35" r="122.643"/>
			<path fill="#2C2C2C" d="M1088.434,1005.144h252.572c0-139.492-113.08-252.572-252.572-252.572V1005.144z"/>
			<linearGradient id="SVGID_4_" gradientUnits="userSpaceOnUse" x1="964.2978" y1="306.5413" x2="1101.2157" y2="306.5413">
				<stop  offset="0.0633" style="stop-color:#A3A3A3;stop-opacity:0.2"/>
				<stop  offset="1" style="stop-color:#A3A3A3"/>
			</linearGradient>
			<path opacity="0.23" fill="url(#SVGID_4_)" d="M964.298,238.082V375c75.618,0,136.918-61.058,136.918-136.918H964.298z"/>
			<linearGradient id="SVGID_5_" gradientUnits="userSpaceOnUse" x1="947.8093" y1="277.4901" x2="1084.7272" y2="277.4901">
				<stop  offset="0" style="stop-color:#9F9F9F"/>
				<stop  offset="1" style="stop-color:#BCBCBC"/>
			</linearGradient>
			<path opacity="0.85" fill="url(#SVGID_5_)" d="M947.809,209.031v136.918c75.618,0,136.918-61.058,136.918-136.918H947.809z"/>
			<linearGradient id="SVGID_6_" gradientUnits="userSpaceOnUse" x1="535.4875" y1="857.1361" x2="723.4052" y2="857.1361">
				<stop  offset="0" style="stop-color:#9F9F9F"/>
				<stop  offset="1" style="stop-color:#BCBCBC"/>
			</linearGradient>
			<path fill="url(#SVGID_6_)" d="M629.446,810.157c-51.892,0-93.959,42.067-93.959,93.959h187.918
				C723.405,852.223,681.338,810.157,629.446,810.157z"/>
			<path fill="#2C2C2C" d="M1187.522,88.814c51.892,0,93.959-42.067,93.959-93.959h-187.918
				C1093.563,46.748,1135.63,88.814,1187.522,88.814z"/>
			
				<ellipse transform="matrix(0.7071 -0.7071 0.7071 0.7071 -94.9215 251.5508)" fill="none" cx="256.188" cy="240.356" rx="111.231" ry="111.231"/>
			<linearGradient id="SVGID_7_" gradientUnits="userSpaceOnUse" x1="-8.6595" y1="440.3929" x2="323.7254" y2="440.3929">
				<stop  offset="0" style="stop-color:#9F9F9F"/>
				<stop  offset="1" style="stop-color:#BCBCBC"/>
			</linearGradient>
			<path fill="url(#SVGID_7_)" d="M-8.66,108.008v664.77c183.571,0,332.385-148.814,332.385-332.385S174.912,108.008-8.66,108.008z"
				/>
			<g opacity="0.31">
				<g>
					<linearGradient id="SVGID_8_" gradientUnits="userSpaceOnUse" x1="1423.1963" y1="91.8114" x2="1423.1963" y2="10.01">
						<stop  offset="0.0633" style="stop-color:#A3A3A3;stop-opacity:0.2"/>
						<stop  offset="1" style="stop-color:#A3A3A3"/>
					</linearGradient>
					<polygon fill="url(#SVGID_8_)" points="1423.196,91.811 1382.296,50.911 1423.196,10.01 1464.097,50.911 					"/>
					<linearGradient id="SVGID_9_" gradientUnits="userSpaceOnUse" x1="1423.1963" y1="173.6127" x2="1423.1963" y2="91.8114">
						<stop  offset="0.0633" style="stop-color:#A3A3A3;stop-opacity:0.2"/>
						<stop  offset="1" style="stop-color:#A3A3A3"/>
					</linearGradient>
					<polygon fill="url(#SVGID_9_)" points="1423.196,173.613 1382.296,132.712 1423.196,91.811 1464.097,132.712 					"/>
					<linearGradient id="SVGID_10_" gradientUnits="userSpaceOnUse" x1="1423.1963" y1="255.4141" x2="1423.1963" y2="173.6127">
						<stop  offset="0.0633" style="stop-color:#A3A3A3;stop-opacity:0.2"/>
						<stop  offset="1" style="stop-color:#A3A3A3"/>
					</linearGradient>
					<polygon fill="url(#SVGID_10_)" points="1423.196,255.414 1382.296,214.513 1423.196,173.613 1464.097,214.513 					"/>
				</g>
			</g>
			<g opacity="0.04">
				<g>
					
						<rect x="231.036" y="795.422" transform="matrix(0.7071 -0.7071 0.7071 0.7071 -505.5426 422.3257)" width="51.969" height="51.969"/>
					
						<rect x="231.036" y="868.917" transform="matrix(0.7071 -0.7071 0.7071 0.7071 -557.5114 443.8519)" width="51.969" height="51.969"/>
					
						<rect x="231.036" y="942.412" transform="matrix(0.7071 -0.7071 0.7071 0.7071 -609.4803 465.3781)" width="51.969" height="51.969"/>
				</g>
			</g>
			<g>
				<linearGradient id="SVGID_11_" gradientUnits="userSpaceOnUse" x1="1513.8234" y1="747.9668" x2="1616.6945" y2="747.9668">
					<stop  offset="0" style="stop-color:#BCBCBC"/>
					<stop  offset="1" style="stop-color:#878787"/>
				</linearGradient>
				<polygon fill="url(#SVGID_11_)" points="1565.259,799.402 1513.823,747.967 1565.259,696.531 1616.694,747.967 				"/>
				<linearGradient id="SVGID_12_" gradientUnits="userSpaceOnUse" x1="1513.8234" y1="850.8378" x2="1616.6945" y2="850.8378">
					<stop  offset="0" style="stop-color:#9F9F9F"/>
					<stop  offset="1" style="stop-color:#BCBCBC"/>
				</linearGradient>
				<polygon fill="url(#SVGID_12_)" points="1565.259,902.273 1513.823,850.838 1565.259,799.402 1616.694,850.838 				"/>
				<linearGradient id="SVGID_13_" gradientUnits="userSpaceOnUse" x1="1513.8234" y1="953.7088" x2="1616.6945" y2="953.7088">
					<stop  offset="0" style="stop-color:#BCBCBC"/>
					<stop  offset="1" style="stop-color:#878787"/>
				</linearGradient>
				<polygon fill="url(#SVGID_13_)" points="1565.259,1005.144 1513.823,953.709 1565.259,902.273 1616.694,953.709 				"/>
			</g>
			<circle fill="#DCDCDC" cx="257.198" cy="639.917" r="66.527"/>
			<linearGradient id="SVGID_14_" gradientUnits="userSpaceOnUse" x1="1368.3638" y1="164.3988" x2="1708.8311" y2="164.3988">
				<stop  offset="0" style="stop-color:#9F9F9F"/>
				<stop  offset="1" style="stop-color:#BCBCBC"/>
			</linearGradient>
			<polygon fill="url(#SVGID_14_)" points="1708.831,333.942 1368.364,-5.144 1708.831,-5.144 			"/>
			<linearGradient id="SVGID_15_" gradientUnits="userSpaceOnUse" x1="662.1721" y1="686.7993" x2="770.273" y2="686.7993">
				<stop  offset="0.0633" style="stop-color:#A3A3A3;stop-opacity:0.2"/>
				<stop  offset="1" style="stop-color:#A3A3A3"/>
			</linearGradient>
			<polygon opacity="0.23" fill="url(#SVGID_15_)" points="770.273,740.395 662.172,633.204 770.273,633.204 			"/>
			<polygon fill="#2C2C2C" points="66.102,857.642 147.935,938.465 66.102,938.465 			"/>
			<polygon opacity="0.77" fill="#FFFFFF" points="211.248,319 166.308,241 211.248,163 301.128,163 346.068,241 301.128,319 			"/>
			<g>
				<g>
					<path fill="#FFFFFF" d="M1427.514,47.882c0,2.943-2.386,5.328-5.328,5.328s-5.328-2.386-5.328-5.328
						c0-2.943,2.386-5.328,5.328-5.328S1427.514,44.939,1427.514,47.882z"/>
					<path fill="#FFFFFF" d="M1474.708,47.882c0,2.943-2.385,5.328-5.328,5.328s-5.328-2.386-5.328-5.328
						c0-2.943,2.386-5.328,5.328-5.328S1474.708,44.939,1474.708,47.882z"/>
					<path fill="#FFFFFF" d="M1521.902,47.882c0,2.943-2.386,5.328-5.328,5.328s-5.328-2.386-5.328-5.328
						c0-2.943,2.386-5.328,5.328-5.328S1521.902,44.939,1521.902,47.882z"/>
					<path fill="#FFFFFF" d="M1569.096,47.882c0,2.943-2.386,5.328-5.328,5.328c-2.943,0-5.328-2.386-5.328-5.328
						c0-2.943,2.385-5.328,5.328-5.328C1566.711,42.554,1569.096,44.939,1569.096,47.882z"/>
					<path fill="#FFFFFF" d="M1616.29,47.882c0,2.943-2.385,5.328-5.328,5.328c-2.943,0-5.328-2.386-5.328-5.328
						c0-2.943,2.386-5.328,5.328-5.328C1613.905,42.554,1616.29,44.939,1616.29,47.882z"/>
					<path fill="#FFFFFF" d="M1663.484,47.882c0,2.943-2.386,5.328-5.328,5.328s-5.328-2.386-5.328-5.328
						c0-2.943,2.386-5.328,5.328-5.328S1663.484,44.939,1663.484,47.882z"/>
				</g>
				<g>
					<path fill="#FFFFFF" d="M1427.514,90.314c0,2.943-2.386,5.328-5.328,5.328s-5.328-2.386-5.328-5.328
						c0-2.943,2.386-5.328,5.328-5.328S1427.514,87.371,1427.514,90.314z"/>
					<path fill="#FFFFFF" d="M1474.708,90.314c0,2.943-2.385,5.328-5.328,5.328s-5.328-2.386-5.328-5.328
						c0-2.943,2.386-5.328,5.328-5.328S1474.708,87.371,1474.708,90.314z"/>
					<path fill="#FFFFFF" d="M1521.902,90.314c0,2.943-2.386,5.328-5.328,5.328s-5.328-2.386-5.328-5.328
						c0-2.943,2.386-5.328,5.328-5.328S1521.902,87.371,1521.902,90.314z"/>
					<path fill="#FFFFFF" d="M1569.096,90.314c0,2.943-2.386,5.328-5.328,5.328c-2.943,0-5.328-2.386-5.328-5.328
						c0-2.943,2.385-5.328,5.328-5.328C1566.711,84.986,1569.096,87.371,1569.096,90.314z"/>
					<path fill="#FFFFFF" d="M1616.29,90.314c0,2.943-2.385,5.328-5.328,5.328c-2.943,0-5.328-2.386-5.328-5.328
						c0-2.943,2.386-5.328,5.328-5.328C1613.905,84.986,1616.29,87.371,1616.29,90.314z"/>
					<path fill="#FFFFFF" d="M1663.484,90.314c0,2.943-2.386,5.328-5.328,5.328s-5.328-2.386-5.328-5.328
						c0-2.943,2.386-5.328,5.328-5.328S1663.484,87.371,1663.484,90.314z"/>
				</g>
				<g>
					<path fill="#FFFFFF" d="M1427.514,132.746c0,2.943-2.386,5.328-5.328,5.328s-5.328-2.386-5.328-5.328
						c0-2.943,2.386-5.328,5.328-5.328S1427.514,129.803,1427.514,132.746z"/>
					<path fill="#FFFFFF" d="M1474.708,132.746c0,2.943-2.385,5.328-5.328,5.328s-5.328-2.386-5.328-5.328
						c0-2.943,2.386-5.328,5.328-5.328S1474.708,129.803,1474.708,132.746z"/>
					<path fill="#FFFFFF" d="M1521.902,132.746c0,2.943-2.386,5.328-5.328,5.328s-5.328-2.386-5.328-5.328
						c0-2.943,2.386-5.328,5.328-5.328S1521.902,129.803,1521.902,132.746z"/>
					<path fill="#FFFFFF" d="M1569.096,132.746c0,2.943-2.386,5.328-5.328,5.328c-2.943,0-5.328-2.386-5.328-5.328
						c0-2.943,2.385-5.328,5.328-5.328C1566.711,127.418,1569.096,129.803,1569.096,132.746z"/>
					<path fill="#FFFFFF" d="M1616.29,132.746c0,2.943-2.385,5.328-5.328,5.328c-2.943,0-5.328-2.386-5.328-5.328
						c0-2.943,2.386-5.328,5.328-5.328C1613.905,127.418,1616.29,129.803,1616.29,132.746z"/>
					<path fill="#FFFFFF" d="M1663.484,132.746c0,2.943-2.386,5.328-5.328,5.328s-5.328-2.386-5.328-5.328
						c0-2.943,2.386-5.328,5.328-5.328S1663.484,129.803,1663.484,132.746z"/>
				</g>
				<g>
					<path fill="#FFFFFF" d="M1427.514,175.178c0,2.943-2.386,5.328-5.328,5.328s-5.328-2.386-5.328-5.328
						c0-2.943,2.386-5.328,5.328-5.328S1427.514,172.236,1427.514,175.178z"/>
					<path fill="#FFFFFF" d="M1474.708,175.178c0,2.943-2.385,5.328-5.328,5.328s-5.328-2.386-5.328-5.328
						c0-2.943,2.386-5.328,5.328-5.328S1474.708,172.236,1474.708,175.178z"/>
					<path fill="#FFFFFF" d="M1521.902,175.178c0,2.943-2.386,5.328-5.328,5.328s-5.328-2.386-5.328-5.328
						c0-2.943,2.386-5.328,5.328-5.328S1521.902,172.236,1521.902,175.178z"/>
					<path fill="#FFFFFF" d="M1569.096,175.178c0,2.943-2.386,5.328-5.328,5.328c-2.943,0-5.328-2.386-5.328-5.328
						c0-2.943,2.385-5.328,5.328-5.328C1566.711,169.85,1569.096,172.236,1569.096,175.178z"/>
					<path fill="#FFFFFF" d="M1616.29,175.178c0,2.943-2.385,5.328-5.328,5.328c-2.943,0-5.328-2.386-5.328-5.328
						c0-2.943,2.386-5.328,5.328-5.328C1613.905,169.85,1616.29,172.236,1616.29,175.178z"/>
					<path fill="#FFFFFF" d="M1663.484,175.178c0,2.943-2.386,5.328-5.328,5.328s-5.328-2.386-5.328-5.328
						c0-2.943,2.386-5.328,5.328-5.328S1663.484,172.236,1663.484,175.178z"/>
				</g>
				<g>
					<path fill="#FFFFFF" d="M1427.514,217.61c0,2.943-2.386,5.328-5.328,5.328s-5.328-2.386-5.328-5.328
						c0-2.943,2.386-5.328,5.328-5.328S1427.514,214.668,1427.514,217.61z"/>
					<path fill="#FFFFFF" d="M1474.708,217.61c0,2.943-2.385,5.328-5.328,5.328s-5.328-2.386-5.328-5.328
						c0-2.943,2.386-5.328,5.328-5.328S1474.708,214.668,1474.708,217.61z"/>
					<path fill="#FFFFFF" d="M1521.902,217.61c0,2.943-2.386,5.328-5.328,5.328s-5.328-2.386-5.328-5.328
						c0-2.943,2.386-5.328,5.328-5.328S1521.902,214.668,1521.902,217.61z"/>
					<path fill="#FFFFFF" d="M1569.096,217.61c0,2.943-2.386,5.328-5.328,5.328c-2.943,0-5.328-2.386-5.328-5.328
						c0-2.943,2.385-5.328,5.328-5.328C1566.711,212.282,1569.096,214.668,1569.096,217.61z"/>
					<path fill="#FFFFFF" d="M1616.29,217.61c0,2.943-2.385,5.328-5.328,5.328c-2.943,0-5.328-2.386-5.328-5.328
						c0-2.943,2.386-5.328,5.328-5.328C1613.905,212.282,1616.29,214.668,1616.29,217.61z"/>
					<path fill="#FFFFFF" d="M1663.484,217.61c0,2.943-2.386,5.328-5.328,5.328s-5.328-2.386-5.328-5.328
						c0-2.943,2.386-5.328,5.328-5.328S1663.484,214.668,1663.484,217.61z"/>
				</g>
				<g>
					<path fill="#FFFFFF" d="M1427.514,260.043c0,2.943-2.386,5.328-5.328,5.328s-5.328-2.385-5.328-5.328
						c0-2.943,2.386-5.328,5.328-5.328S1427.514,257.1,1427.514,260.043z"/>
					<path fill="#FFFFFF" d="M1474.708,260.043c0,2.943-2.385,5.328-5.328,5.328s-5.328-2.385-5.328-5.328
						c0-2.943,2.386-5.328,5.328-5.328S1474.708,257.1,1474.708,260.043z"/>
					<path fill="#FFFFFF" d="M1521.902,260.043c0,2.943-2.386,5.328-5.328,5.328s-5.328-2.385-5.328-5.328
						c0-2.943,2.386-5.328,5.328-5.328S1521.902,257.1,1521.902,260.043z"/>
					<path fill="#FFFFFF" d="M1569.096,260.043c0,2.943-2.386,5.328-5.328,5.328c-2.943,0-5.328-2.385-5.328-5.328
						c0-2.943,2.385-5.328,5.328-5.328C1566.711,254.714,1569.096,257.1,1569.096,260.043z"/>
					<path fill="#FFFFFF" d="M1616.29,260.043c0,2.943-2.385,5.328-5.328,5.328c-2.943,0-5.328-2.385-5.328-5.328
						c0-2.943,2.386-5.328,5.328-5.328C1613.905,254.714,1616.29,257.1,1616.29,260.043z"/>
					<path fill="#FFFFFF" d="M1663.484,260.043c0,2.943-2.386,5.328-5.328,5.328s-5.328-2.385-5.328-5.328
						c0-2.943,2.386-5.328,5.328-5.328S1663.484,257.1,1663.484,260.043z"/>
				</g>
				<g>
					<path fill="#FFFFFF" d="M1427.514,302.475c0,2.943-2.386,5.328-5.328,5.328s-5.328-2.386-5.328-5.328
						c0-2.943,2.386-5.328,5.328-5.328S1427.514,299.532,1427.514,302.475z"/>
					<path fill="#FFFFFF" d="M1474.708,302.475c0,2.943-2.385,5.328-5.328,5.328s-5.328-2.386-5.328-5.328
						c0-2.943,2.386-5.328,5.328-5.328S1474.708,299.532,1474.708,302.475z"/>
					<path fill="#FFFFFF" d="M1521.902,302.475c0,2.943-2.386,5.328-5.328,5.328s-5.328-2.386-5.328-5.328
						c0-2.943,2.386-5.328,5.328-5.328S1521.902,299.532,1521.902,302.475z"/>
					<path fill="#FFFFFF" d="M1569.096,302.475c0,2.943-2.386,5.328-5.328,5.328c-2.943,0-5.328-2.386-5.328-5.328
						c0-2.943,2.385-5.328,5.328-5.328C1566.711,297.146,1569.096,299.532,1569.096,302.475z"/>
					<path fill="#FFFFFF" d="M1616.29,302.475c0,2.943-2.385,5.328-5.328,5.328c-2.943,0-5.328-2.386-5.328-5.328
						c0-2.943,2.386-5.328,5.328-5.328C1613.905,297.146,1616.29,299.532,1616.29,302.475z"/>
					<path fill="#FFFFFF" d="M1663.484,302.475c0,2.943-2.386,5.328-5.328,5.328s-5.328-2.386-5.328-5.328
						c0-2.943,2.386-5.328,5.328-5.328S1663.484,299.532,1663.484,302.475z"/>
				</g>
			</g>
			<g>
				<g>
					<path fill="#FFFFFF" d="M167.684,529.789c0,2.943-2.386,5.328-5.328,5.328c-2.943,0-5.328-2.386-5.328-5.328
						c0-2.943,2.386-5.328,5.328-5.328C165.299,524.461,167.684,526.847,167.684,529.789z"/>
					<path fill="#FFFFFF" d="M214.878,529.789c0,2.943-2.386,5.328-5.328,5.328c-2.943,0-5.328-2.386-5.328-5.328
						c0-2.943,2.386-5.328,5.328-5.328C212.493,524.461,214.878,526.847,214.878,529.789z"/>
					<path fill="#FFFFFF" d="M262.072,529.789c0,2.943-2.386,5.328-5.328,5.328c-2.943,0-5.328-2.386-5.328-5.328
						c0-2.943,2.386-5.328,5.328-5.328C259.687,524.461,262.072,526.847,262.072,529.789z"/>
					<path fill="#FFFFFF" d="M309.266,529.789c0,2.943-2.386,5.328-5.328,5.328s-5.328-2.386-5.328-5.328
						c0-2.943,2.385-5.328,5.328-5.328S309.266,526.847,309.266,529.789z"/>
					<path fill="#FFFFFF" d="M356.46,529.789c0,2.943-2.386,5.328-5.328,5.328c-2.943,0-5.328-2.386-5.328-5.328
						c0-2.943,2.386-5.328,5.328-5.328C354.075,524.461,356.46,526.847,356.46,529.789z"/>
					<path fill="#FFFFFF" d="M403.654,529.789c0,2.943-2.386,5.328-5.328,5.328c-2.943,0-5.328-2.386-5.328-5.328
						c0-2.943,2.386-5.328,5.328-5.328C401.268,524.461,403.654,526.847,403.654,529.789z"/>
				</g>
				<g>
					<path fill="#FFFFFF" d="M167.684,572.222c0,2.943-2.386,5.328-5.328,5.328c-2.943,0-5.328-2.386-5.328-5.328
						c0-2.943,2.386-5.328,5.328-5.328C165.299,566.893,167.684,569.279,167.684,572.222z"/>
					<path fill="#FFFFFF" d="M214.878,572.222c0,2.943-2.386,5.328-5.328,5.328c-2.943,0-5.328-2.386-5.328-5.328
						c0-2.943,2.386-5.328,5.328-5.328C212.493,566.893,214.878,569.279,214.878,572.222z"/>
					<path fill="#FFFFFF" d="M262.072,572.222c0,2.943-2.386,5.328-5.328,5.328c-2.943,0-5.328-2.386-5.328-5.328
						c0-2.943,2.386-5.328,5.328-5.328C259.687,566.893,262.072,569.279,262.072,572.222z"/>
					<path fill="#FFFFFF" d="M309.266,572.222c0,2.943-2.386,5.328-5.328,5.328s-5.328-2.386-5.328-5.328
						c0-2.943,2.385-5.328,5.328-5.328S309.266,569.279,309.266,572.222z"/>
					<path fill="#FFFFFF" d="M356.46,572.222c0,2.943-2.386,5.328-5.328,5.328c-2.943,0-5.328-2.386-5.328-5.328
						c0-2.943,2.386-5.328,5.328-5.328C354.075,566.893,356.46,569.279,356.46,572.222z"/>
					<path fill="#FFFFFF" d="M403.654,572.222c0,2.943-2.386,5.328-5.328,5.328c-2.943,0-5.328-2.386-5.328-5.328
						c0-2.943,2.386-5.328,5.328-5.328C401.268,566.893,403.654,569.279,403.654,572.222z"/>
				</g>
				<g>
					<path fill="#FFFFFF" d="M167.684,614.654c0,2.943-2.386,5.328-5.328,5.328c-2.943,0-5.328-2.385-5.328-5.328
						s2.386-5.328,5.328-5.328C165.299,609.325,167.684,611.711,167.684,614.654z"/>
					<path fill="#FFFFFF" d="M214.878,614.654c0,2.943-2.386,5.328-5.328,5.328c-2.943,0-5.328-2.385-5.328-5.328
						s2.386-5.328,5.328-5.328C212.493,609.325,214.878,611.711,214.878,614.654z"/>
					<path fill="#FFFFFF" d="M262.072,614.654c0,2.943-2.386,5.328-5.328,5.328c-2.943,0-5.328-2.385-5.328-5.328
						s2.386-5.328,5.328-5.328C259.687,609.325,262.072,611.711,262.072,614.654z"/>
					<path fill="#FFFFFF" d="M309.266,614.654c0,2.943-2.386,5.328-5.328,5.328s-5.328-2.385-5.328-5.328s2.385-5.328,5.328-5.328
						S309.266,611.711,309.266,614.654z"/>
					<path fill="#FFFFFF" d="M356.46,614.654c0,2.943-2.386,5.328-5.328,5.328c-2.943,0-5.328-2.385-5.328-5.328
						s2.386-5.328,5.328-5.328C354.075,609.325,356.46,611.711,356.46,614.654z"/>
					<path fill="#FFFFFF" d="M403.654,614.654c0,2.943-2.386,5.328-5.328,5.328c-2.943,0-5.328-2.385-5.328-5.328
						s2.386-5.328,5.328-5.328C401.268,609.325,403.654,611.711,403.654,614.654z"/>
				</g>
				<g>
					<path fill="#FFFFFF" d="M167.684,657.086c0,2.943-2.386,5.328-5.328,5.328c-2.943,0-5.328-2.386-5.328-5.328
						c0-2.943,2.386-5.328,5.328-5.328C165.299,651.758,167.684,654.143,167.684,657.086z"/>
					<path fill="#FFFFFF" d="M214.878,657.086c0,2.943-2.386,5.328-5.328,5.328c-2.943,0-5.328-2.386-5.328-5.328
						c0-2.943,2.386-5.328,5.328-5.328C212.493,651.758,214.878,654.143,214.878,657.086z"/>
					<path fill="#FFFFFF" d="M262.072,657.086c0,2.943-2.386,5.328-5.328,5.328c-2.943,0-5.328-2.386-5.328-5.328
						c0-2.943,2.386-5.328,5.328-5.328C259.687,651.758,262.072,654.143,262.072,657.086z"/>
					<path fill="#FFFFFF" d="M309.266,657.086c0,2.943-2.386,5.328-5.328,5.328s-5.328-2.386-5.328-5.328
						c0-2.943,2.385-5.328,5.328-5.328S309.266,654.143,309.266,657.086z"/>
					<path fill="#FFFFFF" d="M356.46,657.086c0,2.943-2.386,5.328-5.328,5.328c-2.943,0-5.328-2.386-5.328-5.328
						c0-2.943,2.386-5.328,5.328-5.328C354.075,651.758,356.46,654.143,356.46,657.086z"/>
					<path fill="#FFFFFF" d="M403.654,657.086c0,2.943-2.386,5.328-5.328,5.328c-2.943,0-5.328-2.386-5.328-5.328
						c0-2.943,2.386-5.328,5.328-5.328C401.268,651.758,403.654,654.143,403.654,657.086z"/>
				</g>
				<g>
					<path fill="#FFFFFF" d="M167.684,699.518c0,2.943-2.386,5.328-5.328,5.328c-2.943,0-5.328-2.386-5.328-5.328
						c0-2.943,2.386-5.328,5.328-5.328C165.299,694.19,167.684,696.575,167.684,699.518z"/>
					<path fill="#FFFFFF" d="M214.878,699.518c0,2.943-2.386,5.328-5.328,5.328c-2.943,0-5.328-2.386-5.328-5.328
						c0-2.943,2.386-5.328,5.328-5.328C212.493,694.19,214.878,696.575,214.878,699.518z"/>
					<path fill="#FFFFFF" d="M262.072,699.518c0,2.943-2.386,5.328-5.328,5.328c-2.943,0-5.328-2.386-5.328-5.328
						c0-2.943,2.386-5.328,5.328-5.328C259.687,694.19,262.072,696.575,262.072,699.518z"/>
					<path fill="#FFFFFF" d="M309.266,699.518c0,2.943-2.386,5.328-5.328,5.328s-5.328-2.386-5.328-5.328
						c0-2.943,2.385-5.328,5.328-5.328S309.266,696.575,309.266,699.518z"/>
					<path fill="#FFFFFF" d="M356.46,699.518c0,2.943-2.386,5.328-5.328,5.328c-2.943,0-5.328-2.386-5.328-5.328
						c0-2.943,2.386-5.328,5.328-5.328C354.075,694.19,356.46,696.575,356.46,699.518z"/>
					<path fill="#FFFFFF" d="M403.654,699.518c0,2.943-2.386,5.328-5.328,5.328c-2.943,0-5.328-2.386-5.328-5.328
						c0-2.943,2.386-5.328,5.328-5.328C401.268,694.19,403.654,696.575,403.654,699.518z"/>
				</g>
				<g>
					<path fill="#FFFFFF" d="M167.684,741.95c0,2.943-2.386,5.328-5.328,5.328c-2.943,0-5.328-2.386-5.328-5.328
						c0-2.943,2.386-5.328,5.328-5.328C165.299,736.622,167.684,739.007,167.684,741.95z"/>
					<path fill="#FFFFFF" d="M214.878,741.95c0,2.943-2.386,5.328-5.328,5.328c-2.943,0-5.328-2.386-5.328-5.328
						c0-2.943,2.386-5.328,5.328-5.328C212.493,736.622,214.878,739.007,214.878,741.95z"/>
					<path fill="#FFFFFF" d="M262.072,741.95c0,2.943-2.386,5.328-5.328,5.328c-2.943,0-5.328-2.386-5.328-5.328
						c0-2.943,2.386-5.328,5.328-5.328C259.687,736.622,262.072,739.007,262.072,741.95z"/>
					<path fill="#FFFFFF" d="M309.266,741.95c0,2.943-2.386,5.328-5.328,5.328s-5.328-2.386-5.328-5.328
						c0-2.943,2.385-5.328,5.328-5.328S309.266,739.007,309.266,741.95z"/>
					<path fill="#FFFFFF" d="M356.46,741.95c0,2.943-2.386,5.328-5.328,5.328c-2.943,0-5.328-2.386-5.328-5.328
						c0-2.943,2.386-5.328,5.328-5.328C354.075,736.622,356.46,739.007,356.46,741.95z"/>
					<path fill="#FFFFFF" d="M403.654,741.95c0,2.943-2.386,5.328-5.328,5.328c-2.943,0-5.328-2.386-5.328-5.328
						c0-2.943,2.386-5.328,5.328-5.328C401.268,736.622,403.654,739.007,403.654,741.95z"/>
				</g>
				<g>
					<path fill="#FFFFFF" d="M167.684,784.382c0,2.943-2.386,5.328-5.328,5.328c-2.943,0-5.328-2.386-5.328-5.328
						c0-2.943,2.386-5.328,5.328-5.328C165.299,779.054,167.684,781.44,167.684,784.382z"/>
					<path fill="#FFFFFF" d="M214.878,784.382c0,2.943-2.386,5.328-5.328,5.328c-2.943,0-5.328-2.386-5.328-5.328
						c0-2.943,2.386-5.328,5.328-5.328C212.493,779.054,214.878,781.44,214.878,784.382z"/>
					<path fill="#FFFFFF" d="M262.072,784.382c0,2.943-2.386,5.328-5.328,5.328c-2.943,0-5.328-2.386-5.328-5.328
						c0-2.943,2.386-5.328,5.328-5.328C259.687,779.054,262.072,781.44,262.072,784.382z"/>
					<path fill="#FFFFFF" d="M309.266,784.382c0,2.943-2.386,5.328-5.328,5.328s-5.328-2.386-5.328-5.328
						c0-2.943,2.385-5.328,5.328-5.328S309.266,781.44,309.266,784.382z"/>
					<path fill="#FFFFFF" d="M356.46,784.382c0,2.943-2.386,5.328-5.328,5.328c-2.943,0-5.328-2.386-5.328-5.328
						c0-2.943,2.386-5.328,5.328-5.328C354.075,779.054,356.46,781.44,356.46,784.382z"/>
					<path fill="#FFFFFF" d="M403.654,784.382c0,2.943-2.386,5.328-5.328,5.328c-2.943,0-5.328-2.386-5.328-5.328
						c0-2.943,2.386-5.328,5.328-5.328C401.268,779.054,403.654,781.44,403.654,784.382z"/>
				</g>
			</g>
			<g>
				<g>
					<path fill="#FFFFFF" d="M888.259,729.827c0,2.943-2.386,5.328-5.328,5.328c-2.943,0-5.328-2.386-5.328-5.328
						c0-2.943,2.386-5.328,5.328-5.328C885.873,724.498,888.259,726.884,888.259,729.827z"/>
					<path fill="#FFFFFF" d="M935.453,729.827c0,2.943-2.386,5.328-5.328,5.328c-2.943,0-5.328-2.386-5.328-5.328
						c0-2.943,2.386-5.328,5.328-5.328C933.067,724.498,935.453,726.884,935.453,729.827z"/>
					<path fill="#FFFFFF" d="M982.647,729.827c0,2.943-2.386,5.328-5.328,5.328s-5.328-2.386-5.328-5.328
						c0-2.943,2.385-5.328,5.328-5.328S982.647,726.884,982.647,729.827z"/>
					<path fill="#FFFFFF" d="M1029.841,729.827c0,2.943-2.386,5.328-5.328,5.328s-5.328-2.386-5.328-5.328
						c0-2.943,2.386-5.328,5.328-5.328S1029.841,726.884,1029.841,729.827z"/>
					<path fill="#FFFFFF" d="M1077.035,729.827c0,2.943-2.385,5.328-5.328,5.328s-5.328-2.386-5.328-5.328
						c0-2.943,2.386-5.328,5.328-5.328S1077.035,726.884,1077.035,729.827z"/>
					<path fill="#FFFFFF" d="M1124.229,729.827c0,2.943-2.386,5.328-5.328,5.328s-5.328-2.386-5.328-5.328
						c0-2.943,2.386-5.328,5.328-5.328S1124.229,726.884,1124.229,729.827z"/>
				</g>
				<g>
					<path fill="#FFFFFF" d="M888.259,772.259c0,2.943-2.386,5.328-5.328,5.328c-2.943,0-5.328-2.386-5.328-5.328
						c0-2.943,2.386-5.328,5.328-5.328C885.873,766.93,888.259,769.316,888.259,772.259z"/>
					<path fill="#FFFFFF" d="M935.453,772.259c0,2.943-2.386,5.328-5.328,5.328c-2.943,0-5.328-2.386-5.328-5.328
						c0-2.943,2.386-5.328,5.328-5.328C933.067,766.93,935.453,769.316,935.453,772.259z"/>
					<path fill="#FFFFFF" d="M982.647,772.259c0,2.943-2.386,5.328-5.328,5.328s-5.328-2.386-5.328-5.328
						c0-2.943,2.385-5.328,5.328-5.328S982.647,769.316,982.647,772.259z"/>
					<path fill="#FFFFFF" d="M1029.841,772.259c0,2.943-2.386,5.328-5.328,5.328s-5.328-2.386-5.328-5.328
						c0-2.943,2.386-5.328,5.328-5.328S1029.841,769.316,1029.841,772.259z"/>
					<path fill="#FFFFFF" d="M1077.035,772.259c0,2.943-2.385,5.328-5.328,5.328s-5.328-2.386-5.328-5.328
						c0-2.943,2.386-5.328,5.328-5.328S1077.035,769.316,1077.035,772.259z"/>
					<path fill="#FFFFFF" d="M1124.229,772.259c0,2.943-2.386,5.328-5.328,5.328s-5.328-2.386-5.328-5.328
						c0-2.943,2.386-5.328,5.328-5.328S1124.229,769.316,1124.229,772.259z"/>
				</g>
				<g>
					<path fill="#FFFFFF" d="M888.259,814.691c0,2.943-2.386,5.328-5.328,5.328c-2.943,0-5.328-2.386-5.328-5.328
						c0-2.943,2.386-5.328,5.328-5.328C885.873,809.363,888.259,811.748,888.259,814.691z"/>
					<path fill="#FFFFFF" d="M935.453,814.691c0,2.943-2.386,5.328-5.328,5.328c-2.943,0-5.328-2.386-5.328-5.328
						c0-2.943,2.386-5.328,5.328-5.328C933.067,809.363,935.453,811.748,935.453,814.691z"/>
					<path fill="#FFFFFF" d="M982.647,814.691c0,2.943-2.386,5.328-5.328,5.328s-5.328-2.386-5.328-5.328
						c0-2.943,2.385-5.328,5.328-5.328S982.647,811.748,982.647,814.691z"/>
					<path fill="#FFFFFF" d="M1029.841,814.691c0,2.943-2.386,5.328-5.328,5.328s-5.328-2.386-5.328-5.328
						c0-2.943,2.386-5.328,5.328-5.328S1029.841,811.748,1029.841,814.691z"/>
					<path fill="#FFFFFF" d="M1077.035,814.691c0,2.943-2.385,5.328-5.328,5.328s-5.328-2.386-5.328-5.328
						c0-2.943,2.386-5.328,5.328-5.328S1077.035,811.748,1077.035,814.691z"/>
					<path fill="#FFFFFF" d="M1124.229,814.691c0,2.943-2.386,5.328-5.328,5.328s-5.328-2.386-5.328-5.328
						c0-2.943,2.386-5.328,5.328-5.328S1124.229,811.748,1124.229,814.691z"/>
				</g>
				<g>
					<path fill="#FFFFFF" d="M888.259,857.123c0,2.943-2.386,5.328-5.328,5.328c-2.943,0-5.328-2.386-5.328-5.328
						c0-2.943,2.386-5.328,5.328-5.328C885.873,851.795,888.259,854.18,888.259,857.123z"/>
					<path fill="#FFFFFF" d="M935.453,857.123c0,2.943-2.386,5.328-5.328,5.328c-2.943,0-5.328-2.386-5.328-5.328
						c0-2.943,2.386-5.328,5.328-5.328C933.067,851.795,935.453,854.18,935.453,857.123z"/>
					<path fill="#FFFFFF" d="M982.647,857.123c0,2.943-2.386,5.328-5.328,5.328s-5.328-2.386-5.328-5.328
						c0-2.943,2.385-5.328,5.328-5.328S982.647,854.18,982.647,857.123z"/>
					<path fill="#FFFFFF" d="M1029.841,857.123c0,2.943-2.386,5.328-5.328,5.328s-5.328-2.386-5.328-5.328
						c0-2.943,2.386-5.328,5.328-5.328S1029.841,854.18,1029.841,857.123z"/>
					<path fill="#FFFFFF" d="M1077.035,857.123c0,2.943-2.385,5.328-5.328,5.328s-5.328-2.386-5.328-5.328
						c0-2.943,2.386-5.328,5.328-5.328S1077.035,854.18,1077.035,857.123z"/>
					<path fill="#FFFFFF" d="M1124.229,857.123c0,2.943-2.386,5.328-5.328,5.328s-5.328-2.386-5.328-5.328
						c0-2.943,2.386-5.328,5.328-5.328S1124.229,854.18,1124.229,857.123z"/>
				</g>
				<g>
					<path fill="#FFFFFF" d="M888.259,899.555c0,2.943-2.386,5.328-5.328,5.328c-2.943,0-5.328-2.386-5.328-5.328
						s2.386-5.328,5.328-5.328C885.873,894.227,888.259,896.612,888.259,899.555z"/>
					<path fill="#FFFFFF" d="M935.453,899.555c0,2.943-2.386,5.328-5.328,5.328c-2.943,0-5.328-2.386-5.328-5.328
						s2.386-5.328,5.328-5.328C933.067,894.227,935.453,896.612,935.453,899.555z"/>
					<path fill="#FFFFFF" d="M982.647,899.555c0,2.943-2.386,5.328-5.328,5.328s-5.328-2.386-5.328-5.328s2.385-5.328,5.328-5.328
						S982.647,896.612,982.647,899.555z"/>
					<path fill="#FFFFFF" d="M1029.841,899.555c0,2.943-2.386,5.328-5.328,5.328s-5.328-2.386-5.328-5.328s2.386-5.328,5.328-5.328
						S1029.841,896.612,1029.841,899.555z"/>
					<path fill="#FFFFFF" d="M1077.035,899.555c0,2.943-2.385,5.328-5.328,5.328s-5.328-2.386-5.328-5.328s2.386-5.328,5.328-5.328
						S1077.035,896.612,1077.035,899.555z"/>
					<path fill="#FFFFFF" d="M1124.229,899.555c0,2.943-2.386,5.328-5.328,5.328s-5.328-2.386-5.328-5.328s2.386-5.328,5.328-5.328
						S1124.229,896.612,1124.229,899.555z"/>
				</g>
				<g>
					<path fill="#FFFFFF" d="M888.259,941.987c0,2.943-2.386,5.328-5.328,5.328c-2.943,0-5.328-2.385-5.328-5.328
						s2.386-5.328,5.328-5.328C885.873,936.659,888.259,939.044,888.259,941.987z"/>
					<path fill="#FFFFFF" d="M935.453,941.987c0,2.943-2.386,5.328-5.328,5.328c-2.943,0-5.328-2.385-5.328-5.328
						s2.386-5.328,5.328-5.328C933.067,936.659,935.453,939.044,935.453,941.987z"/>
					<path fill="#FFFFFF" d="M982.647,941.987c0,2.943-2.386,5.328-5.328,5.328s-5.328-2.385-5.328-5.328s2.385-5.328,5.328-5.328
						S982.647,939.044,982.647,941.987z"/>
					<path fill="#FFFFFF" d="M1029.841,941.987c0,2.943-2.386,5.328-5.328,5.328s-5.328-2.385-5.328-5.328s2.386-5.328,5.328-5.328
						S1029.841,939.044,1029.841,941.987z"/>
					<path fill="#FFFFFF" d="M1077.035,941.987c0,2.943-2.385,5.328-5.328,5.328s-5.328-2.385-5.328-5.328s2.386-5.328,5.328-5.328
						S1077.035,939.044,1077.035,941.987z"/>
					<path fill="#FFFFFF" d="M1124.229,941.987c0,2.943-2.386,5.328-5.328,5.328s-5.328-2.385-5.328-5.328s2.386-5.328,5.328-5.328
						S1124.229,939.044,1124.229,941.987z"/>
				</g>
				<g>
					<path fill="#FFFFFF" d="M888.259,984.419c0,2.943-2.386,5.328-5.328,5.328c-2.943,0-5.328-2.386-5.328-5.328
						c0-2.943,2.386-5.328,5.328-5.328C885.873,979.091,888.259,981.477,888.259,984.419z"/>
					<path fill="#FFFFFF" d="M935.453,984.419c0,2.943-2.386,5.328-5.328,5.328c-2.943,0-5.328-2.386-5.328-5.328
						c0-2.943,2.386-5.328,5.328-5.328C933.067,979.091,935.453,981.477,935.453,984.419z"/>
					<path fill="#FFFFFF" d="M982.647,984.419c0,2.943-2.386,5.328-5.328,5.328s-5.328-2.386-5.328-5.328
						c0-2.943,2.385-5.328,5.328-5.328S982.647,981.477,982.647,984.419z"/>
					<path fill="#FFFFFF" d="M1029.841,984.419c0,2.943-2.386,5.328-5.328,5.328s-5.328-2.386-5.328-5.328
						c0-2.943,2.386-5.328,5.328-5.328S1029.841,981.477,1029.841,984.419z"/>
					<path fill="#FFFFFF" d="M1077.035,984.419c0,2.943-2.385,5.328-5.328,5.328s-5.328-2.386-5.328-5.328
						c0-2.943,2.386-5.328,5.328-5.328S1077.035,981.477,1077.035,984.419z"/>
					<path fill="#FFFFFF" d="M1124.229,984.419c0,2.943-2.386,5.328-5.328,5.328s-5.328-2.386-5.328-5.328
						c0-2.943,2.386-5.328,5.328-5.328S1124.229,981.477,1124.229,984.419z"/>
				</g>
			</g>
			<circle fill="none" cx="1417.251" cy="534.35" r="142.451"/>
			<path fill="#DCDCDC" d="M185.558-5.144V53.21c32.228,0,58.354-26.023,58.354-58.355H185.558z"/>
			<linearGradient id="SVGID_16_" gradientUnits="userSpaceOnUse" x1="677.3264" y1="667.6038" x2="785.4273" y2="667.6038">
				<stop  offset="0" style="stop-color:#BCBCBC"/>
				<stop  offset="1" style="stop-color:#878787"/>
			</linearGradient>
			<polygon fill="url(#SVGID_16_)" points="785.427,721.199 677.326,614.008 785.427,614.008 			"/>
			<g>
				<line fill="none" x1="1708.831" y1="445" x2="1240.831" y2="445"/>
				<line fill="none" x1="1708.831" y1="464" x2="1240.831" y2="464"/>
				<line fill="none" x1="1708.831" y1="482" x2="1240.831" y2="482"/>
				<line fill="none" x1="1708.831" y1="500" x2="1240.831" y2="500"/>
				<line fill="none" x1="1708.831" y1="518" x2="1240.831" y2="518"/>
				<line fill="none" x1="1708.831" y1="536" x2="1240.831" y2="536"/>
				<line fill="none" x1="1708.831" y1="555" x2="1240.831" y2="555"/>
			</g>
			<g>
				<line fill="none" x1="638.831" y1="183" x2="-9.169" y2="183"/>
				<line fill="none" x1="638.831" y1="201" x2="-9.169" y2="201"/>
				<line fill="none" x1="638.831" y1="219" x2="-9.169" y2="219"/>
				<line fill="none" x1="638.831" y1="237" x2="-9.169" y2="237"/>
				<line fill="none" x1="638.831" y1="256" x2="-9.169" y2="256"/>
				<line fill="none" x1="638.831" y1="274" x2="-9.169" y2="274"/>
				<line fill="none" x1="638.831" y1="292" x2="-9.169" y2="292"/>
			</g>
			<linearGradient id="SVGID_17_" gradientUnits="userSpaceOnUse" x1="587.5" y1="46.2912" x2="690.371" y2="46.2912">
				<stop  offset="0" style="stop-color:#9F9F9F"/>
				<stop  offset="1" style="stop-color:#BCBCBC"/>
			</linearGradient>
			<polygon fill="url(#SVGID_17_)" points="638.935,97.727 587.5,46.291 638.935,-5.144 690.371,46.291 			"/>
			
				<rect x="602.565" y="112.792" transform="matrix(0.7071 0.7071 -0.7071 0.7071 292.6135 -408.107)" fill="#2C2C2C" width="72.741" height="72.741"/>
			<linearGradient id="SVGID_18_" gradientUnits="userSpaceOnUse" x1="587.5" y1="252.0332" x2="690.371" y2="252.0332">
				<stop  offset="0" style="stop-color:#9F9F9F"/>
				<stop  offset="1" style="stop-color:#BCBCBC"/>
			</linearGradient>
			<polygon fill="url(#SVGID_18_)" points="638.935,303.469 587.5,252.033 638.935,200.598 690.371,252.033 			"/>
		</g>
	</g>
</g>
<g id="Vexels">
	<g>
		<g>
			<path fill="#FFFFFF" d="M2527.897,335.484h-644.659c-10.94,0-19.81,8.87-19.81,19.81v268.082l-62.03,19.923l62.03,18.008v186.82
				c0,10.939,8.87,19.81,19.81,19.81h644.659c10.94,0,19.811-8.87,19.811-19.81V355.294
				C2547.708,344.354,2538.838,335.484,2527.897,335.484z"/>
			<rect x="1927.998" y="402.472" fill="none" width="583.032" height="407.034"/>
			<text transform="matrix(1 0 0 1 1927.998 419.5122)"><tspan x="0" y="0" fill="#333333" font-family="'MyriadPro-Regular'" font-size="24px">This design was made by vexels.com. It’s under Creative </tspan><tspan x="0" y="28.8" fill="#333333" font-family="'MyriadPro-Regular'" font-size="24px">Commons 3.0 Attribution License, so you can use this </tspan><tspan x="0" y="57.6" fill="#333333" font-family="'MyriadPro-Regular'" font-size="24px">vector (even commercially) as long as you credit us. If you </tspan><tspan x="0" y="86.4" fill="#333333" font-family="'MyriadPro-Regular'" font-size="24px">don’t want to credit, you can buy a license. Learn more on </tspan><tspan x="0" y="115.2" fill="#C64B09" font-family="'MyriadPro-Regular'" font-size="24px">www.vexels.com/terms-and-conditions/</tspan><tspan x="0" y="201.6" fill="#333333" font-family="'MyriadPro-Regular'" font-size="24px">You can’t sublicense, redistribute or resell an image or </tspan><tspan x="0" y="230.4" fill="#333333" font-family="'MyriadPro-Regular'" font-size="24px">part of it. You can’t use our contents for products where </tspan><tspan x="0" y="259.2" fill="#333333" font-family="'MyriadPro-Regular'" font-size="24px">the design is the main reason it’s being purchased either.</tspan><tspan x="0" y="316.8" fill="#333333" font-family="'MyriadPro-Regular'" font-size="24px">Thanks!</tspan><tspan x="0" y="345.6" fill="#333333" font-family="'MyriadPro-Regular'" font-size="24px">Vexels Team</tspan></text>
		</g>
	</g>
</g>
</svg>
