<?xml version="1.0" encoding="utf-8"?>
<!-- Generator: Adobe Illustrator 24.2.3, SVG Export Plug-In . SVG Version: 6.00 Build 0)  -->
<svg version="1.1" id="Layer_1" xmlns="http://www.w3.org/2000/svg" xmlns:xlink="http://www.w3.org/1999/xlink" x="0px" y="0px"
	 viewBox="0 0 697 295" enable-background="new 0 0 697 295" xml:space="preserve">
<g>
	<g>
		<path fill="#A0A0A0" d="M410.768,15.95c-3.944,0-7.726,1.569-10.511,4.361L137.303,283.909l0.712,0.712h147.532
			c3.944,0,7.726-1.569,10.511-4.361L534.453,41.282c9.335-9.358,2.707-25.332-10.511-25.332H410.768z"/>
		<path fill="#575757" d="M266.363,259.277l-98.137-98.136c-5.798-5.798-5.798-15.198,0-20.996l98.849-98.85
			c9.353-9.353,2.729-25.344-10.498-25.344H143.453c-3.938,0-7.714,1.564-10.498,4.348L13.11,140.144
			c-5.798,5.798-5.798,15.198,0,20.996l119.132,119.132c2.784,2.784,6.561,4.348,10.498,4.348h113.125
			C269.092,284.621,275.716,268.629,266.363,259.277z"/>
		<path fill="#575757" d="M429.238,41.295l98.137,98.136c5.798,5.798,5.798,15.198,0,20.996l-98.849,98.85
			c-9.353,9.353-2.729,25.344,10.498,25.344h113.125c3.938,0,7.714-1.564,10.498-4.348l119.845-119.846
			c5.798-5.798,5.798-15.198,0-20.996L563.359,20.299c-2.784-2.784-6.561-4.348-10.498-4.348H439.736
			C426.509,15.95,419.885,31.942,429.238,41.295z"/>
	</g>
</g>
</svg>
